<svg xmlns="http://www.w3.org/2000/svg" version="1.1" xmlns:xlink="http://www.w3.org/1999/xlink" xmlns:svgjs="http://svgjs.dev/svgjs" width="1000" height="1000" viewBox="0 0 1000 1000"><rect width="1000" height="1000" fill="#051726"></rect><g transform="matrix(0.7,0,0,0.7,149.57575757575756,318.26064678538864)"><svg viewBox="0 0 396 206" data-background-color="#051726" preserveAspectRatio="xMidYMid meet" height="520" width="1000" xmlns="http://www.w3.org/2000/svg" xmlns:xlink="http://www.w3.org/1999/xlink"><g id="tight-bounds" transform="matrix(1,0,0,1,0.2400000000000091,-0.14750889502766995)"><svg viewBox="0 0 395.52 206.29501779005534" height="206.29501779005534" width="395.52"><g><svg viewBox="0 0 397.4975999999999 207.3264928790056" height="206.29501779005534" width="395.52"><g><rect width="397.4975999999999" height="3.7392646599366586" x="0" y="111.53932123328906" fill="#ffffff" opacity="1" stroke-width="0" stroke="transparent" fill-opacity="1" class="rect-o-0" data-fill-palette-color="primary" rx="1%" id="o-0" data-palette-color="#ffffff"></rect></g><g><rect width="397.4975999999999" height="3.7392646599366586" x="0" y="120.17291136434699" fill="#ffffff" opacity="1" stroke-width="0" stroke="transparent" fill-opacity="1" class="rect-o-1" data-fill-palette-color="primary" rx="1%" id="o-1" data-palette-color="#ffffff"></rect></g><g transform="matrix(1,0,0,1,0.9887999999999693,133.7008269665262)"><svg viewBox="0 0 395.52 73.62566591247938" height="73.62566591247938" width="395.52"><g id="textblocktransform"><svg viewBox="0 0 395.52 73.62566591247938" height="73.62566591247938" width="395.52" id="textblock"><g><svg viewBox="0 0 395.52 41.46398169336384" height="41.46398169336384" width="395.52"><g transform="matrix(1,0,0,1,0,0)"><svg width="395.52" viewBox="0.699999988079071 -36.22999954223633 349.5699768066406 36.65999984741211" height="41.46398169336384" data-palette-color="#ffffff"><path d="M0.7-35.83L28.75-35.83 28.75-31.75 17.18-31.75 17.18 0 12.33 0 12.33-31.75 0.7-31.75 0.7-35.83ZM33.85-35.83L55.92-35.83 55.92-31.88 38.72-31.88 38.72-19.98 52.65-19.98 52.65-16.18 38.72-16.18 38.72-3.95 55.92-3.95 55.92 0 33.85 0 33.85-35.83ZM88.15-7.4L88.15-7.4Q88.55-7.4 88.87-7.08L88.87-7.08 90.77-5Q88.57-2.45 85.43-1.03 82.3 0.4 77.87 0.4L77.87 0.4Q74 0.4 70.84-0.94 67.7-2.27 65.47-4.69 63.25-7.1 62.02-10.48 60.8-13.85 60.8-17.9L60.8-17.9Q60.8-21.95 62.11-25.33 63.42-28.7 65.8-31.13 68.17-33.55 71.48-34.89 74.8-36.23 78.8-36.23L78.8-36.23Q82.75-36.23 85.61-35 88.47-33.77 90.69-31.68L90.69-31.68 89.12-29.45Q88.95-29.2 88.72-29.04 88.5-28.88 88.07-28.88L88.07-28.88Q87.75-28.88 87.38-29.11 87.02-29.35 86.52-29.7 86.02-30.05 85.34-30.45 84.67-30.85 83.75-31.2 82.82-31.55 81.59-31.79 80.37-32.02 78.77-32.02L78.77-32.02Q75.9-32.02 73.51-31.04 71.12-30.05 69.4-28.23 67.67-26.4 66.71-23.78 65.75-21.15 65.75-17.9L65.75-17.9Q65.75-14.55 66.71-11.93 67.67-9.3 69.33-7.49 71-5.68 73.27-4.73 75.55-3.78 78.17-3.78L78.17-3.78Q79.77-3.78 81.05-3.96 82.32-4.15 83.41-4.55 84.5-4.95 85.43-5.56 86.37-6.18 87.32-7.03L87.32-7.03Q87.75-7.4 88.15-7.4ZM126.19-35.83L126.19 0 121.32 0 121.32-16.3 102.02-16.3 102.02 0 97.14 0 97.14-35.83 102.02-35.83 102.02-19.85 121.32-19.85 121.32-35.83 126.19-35.83ZM134.94-35.83L157.02-35.83 157.02-31.88 139.81-31.88 139.81-19.35 154.52-19.35 154.52-15.4 139.81-15.4 139.81 0 134.94 0 134.94-35.83ZM159.59-35.83L187.64-35.83 187.64-31.75 176.06-31.75 176.06 0 171.21 0 171.21-31.75 159.59-31.75 159.59-35.83ZM204.59-35.83L218.91 0 215.16 0Q214.51 0 214.11-0.33 213.71-0.65 213.51-1.15L213.51-1.15 210.16-9.8 194.09-9.8 190.74-1.15Q190.56-0.7 190.14-0.35 189.71 0 189.09 0L189.09 0 185.34 0 199.66-35.83 204.59-35.83ZM201.06-27.85L195.44-13.3 208.81-13.3 203.19-27.88Q202.64-29.23 202.11-31.25L202.11-31.25Q201.84-30.23 201.57-29.36 201.31-28.5 201.06-27.85L201.06-27.85ZM236.11 0L223.43 0 223.43-35.83 234.86-35.83Q238.16-35.83 240.55-35.18 242.93-34.52 244.47-33.33 246.01-32.13 246.75-30.39 247.48-28.65 247.48-26.48L247.48-26.48Q247.48-25.15 247.07-23.93 246.66-22.7 245.82-21.65 244.98-20.6 243.72-19.78 242.46-18.95 240.76-18.43L240.76-18.43Q244.68-17.65 246.68-15.6 248.68-13.55 248.68-10.2L248.68-10.2Q248.68-7.93 247.85-6.05 247.01-4.17 245.4-2.83 243.78-1.48 241.45-0.74 239.11 0 236.11 0L236.11 0ZM236.01-16.32L228.28-16.32 228.28-3.85 236.03-3.85Q238.11-3.85 239.6-4.33 241.08-4.8 242.05-5.66 243.01-6.53 243.46-7.71 243.91-8.9 243.91-10.33L243.91-10.33Q243.91-13.1 241.95-14.71 239.98-16.32 236.01-16.32L236.01-16.32ZM228.28-32L228.28-19.78 234.68-19.78Q236.73-19.78 238.23-20.23 239.73-20.68 240.72-21.48 241.71-22.28 242.18-23.41 242.66-24.55 242.66-25.9L242.66-25.9Q242.66-29.05 240.76-30.53 238.86-32 234.86-32L234.86-32 228.28-32ZM286.83-17.9L286.83-17.9Q286.83-13.88 285.56-10.58 284.28-7.28 281.95-4.93 279.63-2.58 276.38-1.29 273.13 0 269.18 0L269.18 0 255.78 0 255.78-35.83 269.18-35.83Q273.13-35.83 276.38-34.54 279.63-33.25 281.95-30.89 284.28-28.53 285.56-25.23 286.83-21.93 286.83-17.9ZM281.86-17.9L281.86-17.9Q281.86-21.2 280.95-23.8 280.06-26.4 278.41-28.2 276.75-30 274.41-30.95 272.06-31.9 269.18-31.9L269.18-31.9 260.66-31.9 260.66-3.93 269.18-3.93Q272.06-3.93 274.41-4.88 276.75-5.83 278.41-7.61 280.06-9.4 280.95-12 281.86-14.6 281.86-17.9ZM307.35-3.85L307.35-3.85Q309.58-3.85 311.33-4.6 313.08-5.35 314.29-6.7 315.5-8.05 316.14-9.93 316.78-11.8 316.78-14.05L316.78-14.05 316.78-35.83 321.6-35.83 321.6-14.05Q321.6-10.95 320.62-8.3 319.63-5.65 317.79-3.71 315.95-1.78 313.3-0.68 310.65 0.43 307.35 0.43L307.35 0.43Q304.05 0.43 301.4-0.68 298.75-1.78 296.9-3.71 295.05-5.65 294.06-8.3 293.08-10.95 293.08-14.05L293.08-14.05 293.08-35.83 297.9-35.83 297.9-14.08Q297.9-11.83 298.54-9.95 299.18-8.08 300.39-6.73 301.6-5.38 303.37-4.61 305.13-3.85 307.35-3.85ZM334.77-35.83L334.77-4.08 350.27-4.08 350.27 0 329.93 0 329.93-35.83 334.77-35.83Z" opacity="1" transform="matrix(1,0,0,1,0,0)" fill="#ffffff" class="wordmark-text-0" data-fill-palette-color="primary" id="text-0"></path></svg></g></svg></g><g transform="matrix(1,0,0,1,75.54432,51.2526326356064)"><svg viewBox="0 0 244.43135999999998 22.373033276872963" height="22.373033276872963" width="244.43135999999998"><g transform="matrix(1,0,0,1,0,0)"><svg width="244.43135999999998" viewBox="0.49000000953674316 -37.54999923706055 449.6800231933594 41.15999984741211" height="22.373033276872963" data-palette-color="#81ffd9"><path d="M36.08-33.45L43.36-33.3Q41.94-26.42 40.65-19.58 39.36-12.74 37.89-5.86L37.89-5.86 27.73-5.76 24.02-18.95 15.53-5.76 4.44-4.93Q4.05-8.3 3.61-11.72 3.17-15.14 2.64-18.51L2.64-18.51Q2.1-22.02 1.56-25.46 1.03-28.91 0.49-32.37L0.49-32.37 10.55-32.67 13.77-17.38Q14.75-19.58 15.77-21.73 16.8-23.88 17.82-26.07L17.82-26.07Q18.9-28.52 20.17-30.71L20.17-30.71 25.68-30.62Q27.1-27.05 28.44-23.51 29.79-19.97 31.35-16.5L31.35-16.5Q32.23-18.85 32.89-20.87 33.54-22.9 34.08-24.88 34.62-26.86 35.11-28.93 35.6-31.01 36.08-33.45L36.08-33.45ZM79.54-18.12L79.54-18.12Q73.14-17.77 66.79-17.55 60.45-17.33 54.05-17.09L54.05-17.09Q54-16.89 54-16.7 54-16.5 54-16.31L54-16.31Q54-14.65 54.76-13.77 55.52-12.89 56.64-12.52 57.76-12.16 59.13-12.11 60.5-12.06 61.67-12.06L61.67-12.06Q64.94-12.06 68.21-12.28 71.48-12.5 74.8-12.74L74.8-12.74 75.19-4.98Q71.97-4.83 68.77-4.74 65.57-4.64 62.35-4.64L62.35-4.64Q61.67-4.64 59.84-4.66 58.01-4.69 55.93-4.81 53.85-4.93 52.05-5.13 50.24-5.32 49.66-5.66L49.66-5.66Q48.14-6.54 47.29-7.91 46.43-9.28 45.97-10.89 45.51-12.5 45.33-14.18 45.16-15.87 45.11-17.43L45.11-17.43Q45.07-17.68 45.09-17.94 45.11-18.21 45.11-18.46L45.11-18.46Q45.11-21.04 45.68-23.27 46.24-25.49 47.75-27.59L47.75-27.59Q48.78-29.05 50.78-30.03 52.78-31.01 55.12-31.57 57.47-32.13 59.81-32.35 62.16-32.57 63.86-32.57L63.86-32.57Q65.38-32.57 67.58-32.3 69.77-32.03 71.95-31.4 74.12-30.76 75.88-29.76 77.63-28.76 78.27-27.29L78.27-27.29Q78.37-27 78.49-26.29 78.61-25.59 78.76-24.68 78.9-23.78 79.03-22.75 79.15-21.73 79.25-20.8 79.34-19.87 79.42-19.14 79.49-18.41 79.54-18.12ZM56.59-21.14L72.9-21.68Q72.6-23.83 71.8-25.07 70.99-26.32 69.8-26.93 68.6-27.54 67.06-27.71 65.52-27.88 63.77-27.88L63.77-27.88Q63.18-27.88 62.3-27.86 61.42-27.83 60.54-27.71 59.67-27.59 58.88-27.34 58.1-27.1 57.66-26.66L57.66-26.66Q57.32-26.37 57.1-25.85 56.88-25.34 56.74-24.76 56.59-24.17 56.52-23.61 56.44-23.05 56.44-22.66L56.44-22.66Q56.44-21.88 56.59-21.14L56.59-21.14ZM121.14-10.16L121.14-10.16Q121.14-7.52 119.97-5.37 118.79-3.22 116.16-2.39L116.16-2.39Q115.77-2.29 114.55-2.22 113.33-2.15 111.91-2.12 110.49-2.1 109.22-2.1 107.95-2.1 107.56-2.1L107.56-2.1Q104.1-2.1 100.65-2.15 97.21-2.2 93.79-2.29L93.79-2.29 93.55-0.2Q91.06-0.2 88.52-0.1 85.98 0 83.44 0.15L83.44 0.15Q83.49-3.61 83.52-7.32 83.54-11.04 83.54-14.79L83.54-14.79Q83.54-20.17 83.37-25.46 83.2-30.76 83.05-36.08L83.05-36.08 91.35-35.74Q91.3-35.11 91.3-34.45 91.3-33.79 91.3-33.11L91.3-33.11Q91.3-29.88 91.43-26.68 91.55-23.49 91.55-20.26L91.55-20.26Q92.33-21.68 93.7-22.95 95.06-24.22 96.58-24.61L96.58-24.61Q97.94-24.95 99.7-25.24 101.46-25.54 103.29-25.76 105.12-25.98 106.93-26.07 108.74-26.17 110.15-26.17L110.15-26.17Q111.18-26.17 112.42-25.9 113.67-25.63 114.89-25.15 116.11-24.66 117.11-23.95 118.11-23.24 118.7-22.31L118.7-22.31Q119.18-21.48 119.65-19.85 120.11-18.21 120.43-16.38 120.75-14.55 120.94-12.84 121.14-11.13 121.14-10.16ZM110.88-13.23L110.88-13.23Q110.88-13.72 110.76-14.5 110.64-15.28 110.42-16.09 110.2-16.89 109.91-17.6 109.61-18.31 109.22-18.65L109.22-18.65Q109.03-18.85 108.59-18.92 108.15-18.99 107.69-19.04 107.22-19.09 106.76-19.09 106.29-19.09 106.05-19.09L106.05-19.09Q105.61-19.09 104.68-19.04 103.75-18.99 102.58-18.92 101.41-18.85 100.12-18.73 98.82-18.6 97.7-18.46 96.58-18.31 95.75-18.14 94.92-17.97 94.62-17.77L94.62-17.77 95.21-9.62Q96.48-9.62 98.46-9.64 100.43-9.67 102.56-9.79 104.68-9.91 106.66-10.16 108.64-10.4 109.81-10.89L109.81-10.89Q110.64-11.23 110.76-11.82 110.88-12.4 110.88-13.23ZM178.99-27.15L178.99-27.15Q178.99-25.1 178.99-23.1 178.99-21.09 178.9-19.04L178.9-19.04Q178.8-14.55 178.51-10.13 178.21-5.71 177.87-1.27L177.87-1.27Q173.43-0.98 169.08-0.78 164.74-0.59 160.29-0.59L160.29-0.59Q159.71-0.59 158.44-0.61 157.17-0.63 155.73-0.68 154.29-0.73 153.02-0.85 151.75-0.98 151.16-1.22L151.16-1.22Q147.4-2.59 145.57-4.91 143.74-7.23 143.74-11.33L143.74-11.33 143.74-12.11Q143.84-13.92 144.03-15.33 144.23-16.75 144.74-17.92 145.25-19.09 146.16-20.09 147.06-21.09 148.62-22.12L148.62-22.12Q149.7-22.85 151.16-23.34 152.63-23.83 154.21-24.17 155.8-24.51 157.34-24.66 158.88-24.8 160.15-24.8L160.15-24.8Q162.49-24.8 164.81-24.46 167.13-24.12 169.42-23.44L169.42-23.44Q169.18-26.66 169.01-29.81 168.84-32.96 168.5-36.13L168.5-36.13Q171.13-36.38 173.72-36.67 176.31-36.96 178.9-37.26L178.9-37.26Q178.95-34.72 178.97-32.2 178.99-29.69 178.99-27.15ZM171.52-12.4L171.52-12.4Q171.52-13.53 171.52-14.65 171.52-15.77 171.47-16.89L171.47-16.89Q168.4-17.04 165.32-17.04L165.32-17.04Q164.88-17.04 163.47-17.02 162.05-16.99 160.46-16.92 158.88-16.85 157.51-16.67 156.14-16.5 155.75-16.26L155.75-16.26Q155.02-15.72 154.85-14.75 154.68-13.77 154.68-12.94L154.68-12.94Q154.68-12.55 154.73-11.89 154.78-11.23 154.9-10.52 155.02-9.81 155.21-9.2 155.41-8.59 155.65-8.3L155.65-8.3Q155.8-8.15 156.17-8.06 156.53-7.96 156.97-7.91 157.41-7.86 157.83-7.86 158.24-7.86 158.49-7.86L158.49-7.86Q161.27-7.86 164-8.11 166.74-8.35 169.52-8.74L169.52-8.74Q169.91-8.84 170.45-8.86 170.99-8.89 171.43-9.03L171.43-9.03 171.43-9.13Q171.43-9.18 171.47-9.23L171.47-9.23Q171.57-10.01 171.55-10.79 171.52-11.57 171.52-12.4ZM217.47-18.12L217.47-18.12Q211.07-17.77 204.72-17.55 198.38-17.33 191.98-17.09L191.98-17.09Q191.93-16.89 191.93-16.7 191.93-16.5 191.93-16.31L191.93-16.31Q191.93-14.65 192.69-13.77 193.44-12.89 194.57-12.52 195.69-12.16 197.06-12.11 198.43-12.06 199.6-12.06L199.6-12.06Q202.87-12.06 206.14-12.28 209.41-12.5 212.73-12.74L212.73-12.74 213.12-4.98Q209.9-4.83 206.7-4.74 203.5-4.64 200.28-4.64L200.28-4.64Q199.6-4.64 197.77-4.66 195.93-4.69 193.86-4.81 191.78-4.93 189.98-5.13 188.17-5.32 187.59-5.66L187.59-5.66Q186.07-6.54 185.22-7.91 184.36-9.28 183.9-10.89 183.43-12.5 183.26-14.18 183.09-15.87 183.04-17.43L183.04-17.43Q183-17.68 183.02-17.94 183.04-18.21 183.04-18.46L183.04-18.46Q183.04-21.04 183.61-23.27 184.17-25.49 185.68-27.59L185.68-27.59Q186.71-29.05 188.71-30.03 190.71-31.01 193.05-31.57 195.4-32.13 197.74-32.35 200.09-32.57 201.79-32.57L201.79-32.57Q203.31-32.57 205.51-32.3 207.7-32.03 209.88-31.4 212.05-30.76 213.81-29.76 215.56-28.76 216.2-27.29L216.2-27.29Q216.3-27 216.42-26.29 216.54-25.59 216.69-24.68 216.83-23.78 216.96-22.75 217.08-21.73 217.18-20.8 217.27-19.87 217.35-19.14 217.42-18.41 217.47-18.12ZM194.52-21.14L210.83-21.68Q210.53-23.83 209.73-25.07 208.92-26.32 207.73-26.93 206.53-27.54 204.99-27.71 203.45-27.88 201.7-27.88L201.7-27.88Q201.11-27.88 200.23-27.86 199.35-27.83 198.47-27.71 197.59-27.59 196.81-27.34 196.03-27.1 195.59-26.66L195.59-26.66Q195.25-26.37 195.03-25.85 194.81-25.34 194.67-24.76 194.52-24.17 194.45-23.61 194.37-23.05 194.37-22.66L194.37-22.66Q194.37-21.88 194.52-21.14L194.52-21.14ZM251.25-27.54L251.25-27.54Q249.45-24.17 247.69-21.02 245.93-17.87 244.1-14.82 242.27-11.77 240.32-8.74 238.36-5.71 236.17-2.59L236.17-2.59 227.67-2.25 218-27.78 228.84-28.08Q229.82-23.54 230.72-19.02 231.63-14.5 232.6-9.91L232.6-9.91Q234.46-14.21 236.19-18.46 237.92-22.71 239.34-27.2L239.34-27.2Q242.37-27.2 245.3-27.25 248.23-27.29 251.25-27.54ZM286.16-18.12L286.16-18.12Q279.77-17.77 273.42-17.55 267.07-17.33 260.68-17.09L260.68-17.09Q260.63-16.89 260.63-16.7 260.63-16.5 260.63-16.31L260.63-16.31Q260.63-14.65 261.38-13.77 262.14-12.89 263.26-12.52 264.39-12.16 265.75-12.11 267.12-12.06 268.29-12.06L268.29-12.06Q271.56-12.06 274.84-12.28 278.11-12.5 281.43-12.74L281.43-12.74 281.82-4.98Q278.6-4.83 275.4-4.74 272.2-4.64 268.98-4.64L268.98-4.64Q268.29-4.64 266.46-4.66 264.63-4.69 262.56-4.81 260.48-4.93 258.67-5.13 256.87-5.32 256.28-5.66L256.28-5.66Q254.77-6.54 253.91-7.91 253.06-9.28 252.59-10.89 252.13-12.5 251.96-14.18 251.79-15.87 251.74-17.43L251.74-17.43Q251.69-17.68 251.72-17.94 251.74-18.21 251.74-18.46L251.74-18.46Q251.74-21.04 252.3-23.27 252.86-25.49 254.38-27.59L254.38-27.59Q255.4-29.05 257.4-30.03 259.41-31.01 261.75-31.57 264.09-32.13 266.44-32.35 268.78-32.57 270.49-32.57L270.49-32.57Q272-32.57 274.2-32.3 276.4-32.03 278.57-31.4 280.74-30.76 282.5-29.76 284.26-28.76 284.89-27.29L284.89-27.29Q284.99-27 285.11-26.29 285.24-25.59 285.38-24.68 285.53-23.78 285.65-22.75 285.77-21.73 285.87-20.8 285.97-19.87 286.04-19.14 286.12-18.41 286.16-18.12ZM263.21-21.14L279.52-21.68Q279.23-23.83 278.42-25.07 277.62-26.32 276.42-26.93 275.23-27.54 273.69-27.71 272.15-27.88 270.39-27.88L270.39-27.88Q269.81-27.88 268.93-27.86 268.05-27.83 267.17-27.71 266.29-27.59 265.51-27.34 264.73-27.1 264.29-26.66L264.29-26.66Q263.95-26.37 263.73-25.85 263.51-25.34 263.36-24.76 263.21-24.17 263.14-23.61 263.07-23.05 263.07-22.66L263.07-22.66Q263.07-21.88 263.21-21.14L263.21-21.14ZM289.43-36.52L300.32-37.55Q299.93-32.81 299.56-28.13 299.2-23.44 298.95-18.7L298.95-18.7Q298.71-14.4 298.44-10.18 298.17-5.96 297.93-1.66L297.93-1.66 290.46-1.27Q290.46-5.71 290.48-10.08 290.51-14.45 290.41-18.9L290.41-18.9Q290.31-23.34 290.02-27.71 289.73-32.08 289.43-36.52L289.43-36.52ZM340.6-19.34L340.6-19.34Q340.6-18.95 340.6-18.58 340.6-18.21 340.55-17.82L340.55-17.82Q340.5-17.14 340.31-15.58 340.11-14.01 339.77-12.33 339.43-10.64 338.94-9.23 338.45-7.81 337.87-7.42L337.87-7.42Q337.58-7.23 335.89-7.08 334.21-6.93 331.79-6.79 329.37-6.64 326.54-6.54 323.71-6.45 321.14-6.37 318.58-6.3 316.65-6.25 314.72-6.2 314.09-6.2L314.09-6.2Q313.8-6.2 313.09-6.2 312.38-6.2 311.6-6.23 310.82-6.25 310.13-6.3 309.45-6.35 309.16-6.45L309.16-6.45Q308.47-6.69 307.79-7.25 307.11-7.81 306.52-8.52 305.93-9.23 305.47-9.99 305.01-10.74 304.81-11.43L304.81-11.43Q304.67-11.96 304.57-13.06 304.47-14.16 304.42-15.36 304.37-16.55 304.35-17.68 304.32-18.8 304.32-19.38L304.32-19.38Q304.32-20.31 304.37-21.95 304.42-23.58 304.67-25.29 304.91-27 305.37-28.49 305.84-29.98 306.72-30.57L306.72-30.57Q307.11-30.81 308.18-31.01 309.25-31.2 310.72-31.35 312.18-31.49 313.84-31.57 315.5-31.64 317.09-31.67 318.68-31.69 320.05-31.69 321.41-31.69 322.24-31.64L322.24-31.64Q322.98-31.59 324.34-31.57 325.71-31.54 327.39-31.49 329.08-31.45 330.89-31.32 332.69-31.2 334.25-31.01 335.82-30.81 337.01-30.49 338.21-30.18 338.6-29.74L338.6-29.74Q339.24-29.05 339.63-27.69 340.02-26.32 340.24-24.78 340.46-23.24 340.53-21.75 340.6-20.26 340.6-19.34ZM330.25-18.31L330.25-18.31Q330.25-18.9 330.2-19.68 330.15-20.46 330.06-21.26 329.96-22.07 329.76-22.83 329.57-23.58 329.27-24.07L329.27-24.07Q328.88-24.71 327.76-25.05 326.64-25.39 325.29-25.56 323.95-25.73 322.66-25.78 321.36-25.83 320.73-25.83L320.73-25.83Q320.39-25.83 319.51-25.81 318.63-25.78 317.68-25.73 316.73-25.68 315.9-25.56 315.07-25.44 314.82-25.29L314.82-25.29Q314.38-25 314.14-24.39 313.89-23.78 313.77-23.05 313.65-22.31 313.62-21.61 313.6-20.9 313.6-20.46L313.6-20.46Q313.6-20.02 313.67-18.87 313.75-17.72 313.87-16.43 313.99-15.14 314.19-14.06 314.38-12.99 314.67-12.7L314.67-12.7Q315.02-12.3 315.97-12.06 316.92-11.82 318.02-11.65 319.12-11.47 320.14-11.4 321.17-11.33 321.61-11.33L321.61-11.33Q322.39-11.33 323.46-11.38 324.54-11.43 325.64-11.62 326.74-11.82 327.71-12.16 328.69-12.5 329.27-13.09L329.27-13.09Q329.62-13.43 329.81-14.11 330.01-14.79 330.1-15.58 330.2-16.36 330.23-17.11 330.25-17.87 330.25-18.31ZM380.2-16.65L380.2-16.65Q380.2-15.97 380.18-15.16 380.15-14.36 380.03-13.53 379.91-12.7 379.69-11.94 379.47-11.18 379.08-10.6L379.08-10.6Q378.25-9.38 377.51-8.52 376.78-7.67 375.93-7.1 375.07-6.54 374-6.2 372.92-5.86 371.46-5.66L371.46-5.66Q369.26-5.32 367.11-5.05 364.97-4.79 362.77-4.79L362.77-4.79Q361.79-4.79 360.77-4.88 359.74-4.98 358.86-5.52L358.86-5.52Q358.37-5.76 357.81-6.18 357.25-6.59 356.71-7.06 356.18-7.52 355.66-7.98 355.15-8.45 354.76-8.79L354.76-8.79 354.47 3.47Q353.1 3.56 351.73 3.54 350.37 3.52 348.95 3.52L348.95 3.52Q348.12 3.52 347.36 3.54 346.61 3.56 345.78 3.61L345.78 3.61Q345.97-0.59 346.14-4.76 346.31-8.94 346.31-13.09L346.31-13.09 346.31-13.67Q346.31-18.31 346.07-22.9 345.82-27.49 345.63-32.13L345.63-32.13Q348.07-32.32 350.46-32.47 352.86-32.62 355.3-32.81L355.3-32.81 355.64-30.22Q359.01-30.62 362.4-30.88 365.8-31.15 369.21-31.15L369.21-31.15Q369.65-31.15 370.17-31.18 370.68-31.2 371.12-31.1L371.12-31.1Q372.29-30.86 373.51-30.49 374.73-30.13 375.81-29.54 376.88-28.96 377.71-28.05 378.54-27.15 378.98-25.88L378.98-25.88Q379.27-24.9 379.52-23.73 379.76-22.56 379.91-21.31 380.05-20.07 380.13-18.87 380.2-17.68 380.2-16.65ZM370.58-17.53L370.58-17.53Q370.58-18.12 370.48-18.8 370.39-19.48 369.99-19.92L369.99-19.92Q369.02-21.04 367.55-21.66 366.09-22.27 364.67-22.27L364.67-22.27Q363.5-22.27 362.13-22.05 360.77-21.83 359.4-21.46 358.03-21.09 356.71-20.63 355.39-20.17 354.32-19.73L354.32-19.73 354.76-13.18Q356.57-12.65 358.64-12.21 360.72-11.77 362.57-11.77L362.57-11.77Q363.06-11.77 364.09-11.74 365.11-11.72 366.21-11.79 367.31-11.87 368.26-12.01 369.21-12.16 369.51-12.55L369.51-12.55Q369.75-12.84 369.95-13.5 370.14-14.16 370.29-14.92 370.43-15.67 370.51-16.38 370.58-17.09 370.58-17.53ZM418.14-18.12L418.14-18.12Q411.74-17.77 405.39-17.55 399.04-17.33 392.65-17.09L392.65-17.09Q392.6-16.89 392.6-16.7 392.6-16.5 392.6-16.31L392.6-16.31Q392.6-14.65 393.36-13.77 394.11-12.89 395.24-12.52 396.36-12.16 397.73-12.11 399.09-12.06 400.27-12.06L400.27-12.06Q403.54-12.06 406.81-12.28 410.08-12.5 413.4-12.74L413.4-12.74 413.79-4.98Q410.57-4.83 407.37-4.74 404.17-4.64 400.95-4.64L400.95-4.64Q400.27-4.64 398.43-4.66 396.6-4.69 394.53-4.81 392.45-4.93 390.65-5.13 388.84-5.32 388.25-5.66L388.25-5.66Q386.74-6.54 385.89-7.91 385.03-9.28 384.57-10.89 384.1-12.5 383.93-14.18 383.76-15.87 383.71-17.43L383.71-17.43Q383.66-17.68 383.69-17.94 383.71-18.21 383.71-18.46L383.71-18.46Q383.71-21.04 384.27-23.27 384.84-25.49 386.35-27.59L386.35-27.59Q387.37-29.05 389.38-30.03 391.38-31.01 393.72-31.57 396.07-32.13 398.41-32.35 400.75-32.57 402.46-32.57L402.46-32.57Q403.98-32.57 406.17-32.3 408.37-32.03 410.54-31.4 412.72-30.76 414.47-29.76 416.23-28.76 416.87-27.29L416.87-27.29Q416.96-27 417.09-26.29 417.21-25.59 417.36-24.68 417.5-23.78 417.62-22.75 417.75-21.73 417.84-20.8 417.94-19.87 418.01-19.14 418.09-18.41 418.14-18.12ZM395.19-21.14L411.5-21.68Q411.2-23.83 410.4-25.07 409.59-26.32 408.4-26.93 407.2-27.54 405.66-27.71 404.12-27.88 402.37-27.88L402.37-27.88Q401.78-27.88 400.9-27.86 400.02-27.83 399.14-27.71 398.26-27.59 397.48-27.34 396.7-27.1 396.26-26.66L396.26-26.66Q395.92-26.37 395.7-25.85 395.48-25.34 395.33-24.76 395.19-24.17 395.11-23.61 395.04-23.05 395.04-22.66L395.04-22.66Q395.04-21.88 395.19-21.14L395.19-21.14ZM450.17-20.61L450.17-20.61 450.17-19.48 440.74-19.04Q440.89-19.68 440.89-20.51L440.89-20.51Q440.89-21.73 440.55-22.09 440.2-22.46 439.03-22.46L439.03-22.46Q437.37-22.46 435.37-21.88 433.37-21.29 431.85-20.75L431.85-20.75Q431.61-18.6 431.46-16.46 431.32-14.31 431.32-12.16L431.32-12.16Q431.32-9.77 431.34-7.4 431.37-5.03 431.42-2.64L431.42-2.64 423.02-2.1Q422.77-5.22 422.53-8.33 422.28-11.43 422.09-14.55L422.09-14.55Q421.85-18.7 421.45-22.83 421.06-26.95 420.67-31.15L420.67-31.15Q423.46-30.96 426.22-30.59 428.97-30.22 431.76-29.69L431.76-29.69 431.51-25.59Q432.98-26.76 434.32-27.61 435.66-28.47 437.05-29.05 438.45-29.64 440.01-29.91 441.57-30.18 443.48-30.18L443.48-30.18Q444.75-30.18 446.11-29.91 447.48-29.64 448.46-28.66L448.46-28.66Q448.94-28.13 449.29-27.05 449.63-25.98 449.82-24.78 450.02-23.58 450.09-22.44 450.17-21.29 450.17-20.61Z" opacity="1" transform="matrix(1,0,0,1,0,0)" fill="#81ffd9" class="slogan-text-1" data-fill-palette-color="secondary" id="text-1"></path></svg></g></svg></g></svg></g></svg></g><g transform="matrix(1,0,0,1,130.40879756571502,0)"><svg viewBox="0 0 136.6800048685699 101.7506702910465" height="101.7506702910465" width="136.6800048685699"><g><svg xmlns="http://www.w3.org/2000/svg" xmlns:xlink="http://www.w3.org/1999/xlink" version="1.1" x="0" y="0" viewBox="5 16.5 90 67" enable-background="new 0 0 100 100" xml:space="preserve" height="101.7506702910465" width="136.6800048685699" class="icon-icon-0" data-fill-palette-color="accent" id="icon-0"><g fill="#81ffd9" data-fill-palette-color="accent"><path d="M5 17.5v65c0 0.552 0.448 1 1 1h88c0.552 0 1-0.448 1-1v-65c0-0.552-0.448-1-1-1H6C5.448 16.5 5 16.948 5 17.5zM91 79.5H9v-54h82V79.5z" fill="#81ffd9" data-fill-palette-color="accent"></path><g fill="#81ffd9" data-fill-palette-color="accent"><path d="M65.079 63.011c-0.443 0-0.887-0.169-1.225-0.507-0.677-0.676-0.677-1.773 0-2.45l8.214-8.215-8.214-8.215c-0.677-0.676-0.677-1.773 0-2.45 0.676-0.676 1.773-0.676 2.449 0l9.439 9.439c0.677 0.676 0.677 1.773 0 2.45l-9.439 9.439C65.965 62.842 65.522 63.011 65.079 63.011z" fill="#81ffd9" data-fill-palette-color="accent"></path></g><g fill="#81ffd9" data-fill-palette-color="accent"><path d="M34.671 63.011c0.443 0 0.887-0.169 1.225-0.507 0.677-0.676 0.677-1.773 0-2.45l-8.214-8.215 8.214-8.215c0.677-0.676 0.677-1.773 0-2.45-0.676-0.676-1.773-0.676-2.449 0l-9.439 9.439c-0.677 0.676-0.677 1.773 0 2.45l9.439 9.439C33.785 62.842 34.228 63.011 34.671 63.011z" fill="#81ffd9" data-fill-palette-color="accent"></path></g><circle fill="#81ffd9" cx="10.602" cy="21.034" r="1.5" data-fill-palette-color="accent"></circle><circle fill="#81ffd9" cx="15.716" cy="21.034" r="1.5" data-fill-palette-color="accent"></circle><circle fill="#81ffd9" cx="20.83" cy="21.034" r="1.5" data-fill-palette-color="accent"></circle><g fill="#81ffd9" data-fill-palette-color="accent"><path d="M40.708 60.584c-0.503-0.086-0.87-0.209-1.101-0.366-0.232-0.158-0.348-0.387-0.348-0.686 0-0.299 0.081-0.718 0.243-1.253 0.162-0.536 0.398-0.819 0.707-0.85 0.03 0 0.181 0.032 0.452 0.094 0.27 0.063 0.552 0.094 0.846 0.094 0.695 0 1.194-0.192 1.495-0.579 0.302-0.386 0.452-1.013 0.452-1.88V44.687c0-0.52 0.464-0.78 1.391-0.78h0.811c0.927 0 1.391 0.26 1.391 0.78v11.064c0 1.56-0.403 2.777-1.205 3.652-0.805 0.874-2.04 1.312-3.71 1.312C41.685 60.715 41.21 60.671 40.708 60.584z" fill="#81ffd9" data-fill-palette-color="accent"></path><path d="M49.555 58.635c0-0.363 0.177-0.804 0.533-1.324 0.356-0.52 0.656-0.78 0.904-0.78 0.093 0 0.293 0.087 0.603 0.26 0.958 0.552 1.893 0.827 2.805 0.827 1.452 0 2.179-0.575 2.179-1.726 0-0.504-0.232-0.929-0.695-1.276-0.464-0.346-1.024-0.65-1.681-0.91-0.656-0.261-1.309-0.56-1.959-0.898-0.649-0.339-1.204-0.863-1.668-1.572-0.464-0.71-0.695-1.596-0.695-2.66 0-1.064 0.278-1.974 0.834-2.731 1.004-1.371 2.558-2.057 4.659-2.057 1.174 0 2.164 0.174 2.967 0.52 0.804 0.346 1.205 0.725 1.205 1.135 0 0.346-0.147 0.776-0.44 1.288-0.293 0.513-0.572 0.769-0.835 0.769-0.061 0-0.201-0.056-0.417-0.165-0.619-0.284-1.333-0.426-2.144-0.426-0.812 0-1.376 0.142-1.692 0.426-0.317 0.284-0.475 0.638-0.475 1.064 0 0.425 0.232 0.803 0.695 1.134 0.464 0.331 1.02 0.623 1.668 0.874 0.65 0.253 1.303 0.548 1.959 0.887 0.656 0.34 1.217 0.863 1.681 1.572 0.463 0.71 0.695 1.557 0.695 2.541 0 0.985-0.151 1.829-0.452 2.53-0.302 0.701-0.715 1.25-1.24 1.643-1.02 0.756-2.271 1.135-3.755 1.135-1.484 0-2.728-0.229-3.732-0.686C50.057 59.572 49.555 59.107 49.555 58.635z" fill="#81ffd9" data-fill-palette-color="accent"></path></g></g></svg></g></svg></g><g></g></svg></g><defs></defs></svg><rect width="395.52" height="206.29501779005534" fill="none" stroke="none" visibility="hidden"></rect></g></svg></g></svg>